<?xml version="1.0"?>
<svg xmlns="http://www.w3.org/2000/svg" height="512px" viewBox="0 0 307.38 307.38" width="512px" class=""><g><path d="m153.679688 0h.019531c84.875 0 153.679687 68.804688 153.679687 153.679688v.019531c0 84.875-68.804687 153.679687-153.679687 153.679687h-.019531c-84.875 0-153.679688-68.804687-153.679688-153.679687v-.019531c0-84.875 68.804688-153.679688 153.679688-153.679688zm0 0" fill="#00acea" data-original="#00ACEA" class="active-path" data-old_color="#00acea" style="fill:#FFFFFF"/><g fill="#d4e1f4"><path d="m224.691406 163.691406h-143c-5.523437 0-10-4.480468-10-10 0-5.523437 4.476563-10 10-10h143c5.519532 0 10 4.476563 10 10 0 5.519532-4.480468 10-10 10zm0 0" data-original="#D4E1F4" class="" data-old_color="#D4E1F4" style="fill:#29303A"/><path d="m224.691406 117.691406h-143c-5.523437 0-10-4.480468-10-10 0-5.523437 4.476563-10 10-10h143c5.519532 0 10 4.476563 10 10 0 5.519532-4.480468 10-10 10zm0 0" data-original="#D4E1F4" class="" data-old_color="#D4E1F4" style="fill:#29303A"/><path d="m224.691406 209.691406h-143c-5.523437 0-10-4.480468-10-10 0-5.523437 4.476563-10 10-10h143c5.519532 0 10 4.476563 10 10 0 5.519532-4.480468 10-10 10zm0 0" data-original="#D4E1F4" class="" data-old_color="#D4E1F4" style="fill:#29303A"/></g></g> </svg>
